<?xml version="1.0" encoding="UTF-8"?>
<svg version="1.1" xmlns="http://www.w3.org/2000/svg" width="512" height="512">
<path d="M0 0 C14.90309133 11.55433122 23.32642529 25.30671339 26 44 C26.0441488 46.33291563 26.05624423 48.66734464 26 51 C34.08333073 51.38221667 34.08333073 51.38221667 42 50 C44.29042869 47.67023189 45.2652968 45.5619229 46.57421875 42.5859375 C49.47582795 37.32329288 55.47477671 34.8417411 61 33 C70.49756955 32.13010249 77.66756172 33.55496544 85.3125 39.3125 C90.92620885 44.92620885 93.10551036 50.76834059 93.375 58.625 C93.28398106 66.09765523 91.06394414 71.39935611 86.23828125 77.0703125 C80.76367881 82.37834489 74.81588502 84.84551554 67.19921875 85.08984375 C58.72636082 84.63280162 52.85571054 82.2904951 47.0625 76.0625 C44.18862962 72.76965991 43.92652408 71.6326204 43 67 C37.39 67 31.78 67 26 67 C26 82.84 26 98.68 26 115 C34.07057711 115.01634666 42.13632393 115.02595005 50.20594788 114.97145844 C53.96423838 114.9479879 57.72164305 114.93663173 61.47998047 114.95532227 C65.10508446 114.97287102 68.72860378 114.95612352 72.35351562 114.91632271 C73.73125481 114.9070811 75.10913271 114.90986939 76.48681641 114.92530632 C85.754995 115.09074212 85.754995 115.09074212 93.59936523 110.73510742 C94.75872295 109.51407182 95.89538 108.27076863 97 107 C97.88051025 106.18837402 98.76102051 105.37674805 99.66821289 104.54052734 C102.14857132 102.16764498 104.60825413 99.77487373 107.0625 97.375 C107.94099609 96.54226562 108.81949219 95.70953125 109.72460938 94.8515625 C110.96114258 93.63726562 110.96114258 93.63726562 112.22265625 92.3984375 C112.97297119 91.67317871 113.72328613 90.94791992 114.49633789 90.20068359 C116.27363713 88.09178668 116.27363713 88.09178668 115.80639648 85.45556641 C115.40723022 84.24006104 115.40723022 84.24006104 115 83 C112.65032725 75.29829488 112.27961876 68.35583157 115.5625 60.8125 C118.75528602 55.09787575 123.67896686 51.41082407 129.1875 48.0625 C136.72821063 45.96099048 144.22738362 45.76240141 151.4375 49.0625 C157.31478823 52.44957357 162.09089294 57.34049209 164.52734375 63.7890625 C166.13990514 71.33211824 166.2887286 79.66477645 162.19921875 86.39453125 C157.5810503 92.57716067 151.85755212 96.96857316 144.29541016 98.82226562 C142 99 142 99 139.46630859 98.34960938 C135.94100519 97.48218071 133.59273894 97.3346119 130 98 C124.23332344 101.60056282 119.77166893 107.19198254 115.25 112.1875 C113.35454222 114.23153113 111.44977139 116.26567914 109.53314209 118.28987122 C108.34799796 119.54662875 107.17596337 120.81593359 106.02008057 122.09965515 C101.20335819 127.29246832 96.92503956 130.60495819 89.71026611 131.33110046 C85.65346741 131.46349878 81.61989905 131.45063538 77.5625 131.390625 C76.07178511 131.38315296 74.58106031 131.37746458 73.09033203 131.37347412 C69.19061565 131.35829323 65.29150711 131.31907846 61.39202881 131.2746582 C56.70054178 131.22629606 52.00885007 131.20813541 47.31718445 131.18484497 C40.21103518 131.14622098 33.10621629 131.06951733 26 131 C26 141.23 26 151.46 26 162 C28.58835693 161.97381592 31.17671387 161.94763184 33.84350586 161.9206543 C42.41685399 161.83762666 50.99022036 161.78250511 59.56386471 161.74093914 C64.75967193 161.7148991 69.95506554 161.67960337 75.15063477 161.62280273 C80.16922099 161.56828334 85.18741059 161.53853743 90.20627022 161.52561378 C92.11637168 161.51640961 94.02645262 161.49843596 95.9363842 161.47134972 C115.16361362 161.20963708 115.16361362 161.20963708 122 167 C122.78109131 167.62076416 123.56218262 168.24152832 124.36694336 168.88110352 C124.93550049 169.45787842 125.50405762 170.03465332 126.08984375 170.62890625 C126.72857422 171.27150391 127.36730469 171.91410156 128.02539062 172.57617188 C128.65638672 173.23166016 129.28738281 173.88714844 129.9375 174.5625 C130.92459961 175.5515332 130.92459961 175.5515332 131.93164062 176.56054688 C137.52185527 182.25375421 137.52185527 182.25375421 139 186 C138.82357605 189.35205511 138.56269287 191.97391301 136.9375 194.9375 C133.68504829 196.72110255 130.53660897 196.79805832 127 196 C123.97351422 193.925378 121.63214922 191.34513761 119.1875 188.625 C117.89112544 187.24049751 116.5930176 185.85761541 115.29296875 184.4765625 C114.7311792 183.85861816 114.16938965 183.24067383 113.59057617 182.60400391 C110.29177384 179.27735289 107.93055299 178.76033823 103.35945129 178.68769836 C102.59412582 178.68553818 101.82880035 178.68337799 101.0402832 178.68115234 C100.23029877 178.67110672 99.42031433 178.6610611 98.58578491 178.65071106 C95.9074576 178.61981063 93.22923056 178.60282496 90.55078125 178.5859375 C88.69417962 178.56723136 86.83758653 178.54765837 84.98100281 178.5272522 C80.09350621 178.47586643 75.20598203 178.43627523 70.31835938 178.39910889 C64.4545548 178.35207748 58.59088777 178.29045208 52.72719574 178.23126221 C43.81818582 178.14297141 34.9092033 178.0732633 26 178 C26 191.86 26 205.72 26 220 C31.94 220 37.88 220 44 220 C44.33 218.35 44.66 216.7 45 215 C49.45962693 208.09514681 54.97117684 203.79342056 63 202 C72.22362581 200.76236659 78.62047163 203.13646222 86.25 208.125 C91.96935809 214.10432892 94.30467541 219.8301607 94.5625 228.125 C94.26790444 235.66173649 92.49084791 240.11586031 87.625 245.75 C81.08873154 251.35251582 74.92441815 254.54877322 66.1015625 254.2421875 C58.11880695 253.32224169 52.36167108 249.94063087 47 244 C44 239.03125 44 239.03125 44 236 C38.06 236 32.12 236 26 236 C26 253.49 26 270.98 26 289 C39.56382745 289.0546848 39.56382745 289.0546848 53.12695312 289.03515625 C58.6599031 289.01072105 64.19192277 288.99494314 69.72485352 289.03076172 C74.18633747 289.05909991 78.64619876 289.04857604 83.10759926 289.01119995 C84.8088173 289.00375823 86.510156 289.01027739 88.21126366 289.03103638 C97.21973594 289.54259402 97.21973594 289.54259402 105.11550903 286.22348022 C106.40060364 284.17160294 107.20867069 282.27754996 108 280 C113.00019521 274.51249762 118.32187463 271.78454538 125.765625 271.04296875 C133.94532234 270.88566688 141.00142311 273.40209141 147 279 C152.30496477 285.96555249 154.58616899 292.20746521 154 301 C152.19063525 309.03528911 148.8921161 315.36859517 141.875 319.875 C135.21660223 323.78713254 128.56968299 323.70434483 121 323 C114.23530232 320.99130814 108.64255033 317.11603889 105 311 C104.34 309.02 103.68 307.04 103 305 C77.59 305 52.18 305 26 305 C26 321.5 26 338 26 355 C47.12 354.67 68.24 354.34 90 354 C91.32 351.36 92.64 348.72 94 346 C98.63981967 340.37698044 104.71554614 337.41630321 111.89453125 336.71875 C120.28936804 336.46532096 127.19024838 337.64658871 133.6171875 343.40625 C139.17543809 349.81236933 141.37634049 356.74821216 141.27734375 365.0859375 C140.55149433 372.71246798 136.42619059 378.78687972 131 384 C125.53890857 388.28031491 118.72860059 389.31380958 111.9375 388.875 C103.65714375 387.73420789 98.7669467 384.33645747 93.4453125 378 C92 376 92 376 90 372 C58.32 371.505 58.32 371.505 26 371 C26 383.87 26 396.74 26 410 C29.0834375 409.95359375 32.166875 409.9071875 35.34375 409.859375 C38.34894161 409.82812922 41.35411473 409.80387002 44.359375 409.78027344 C46.43888525 409.76022841 48.51833963 409.73298487 50.59765625 409.69824219 C53.59649487 409.64941052 56.59458463 409.62695972 59.59375 409.609375 C60.51490601 409.58872986 61.43606201 409.56808472 62.38513184 409.54681396 C69.85734548 409.54424948 74.89804796 411.3307142 80.57299805 416.21411133 C81.29527588 416.9955249 82.01755371 417.77693848 82.76171875 418.58203125 C83.57060547 419.43087891 84.37949219 420.27972656 85.21289062 421.15429688 C86.87781474 422.94274338 88.53921648 424.7344748 90.19726562 426.52929688 C91.00228516 427.37169922 91.80730469 428.21410156 92.63671875 429.08203125 C93.35561279 429.85780518 94.07450684 430.6335791 94.81518555 431.43286133 C96.90711406 433.29470496 96.90711406 433.29470496 99.59790039 432.75976562 C100.39059326 432.50904297 101.18328613 432.25832031 102 432 C111.34551092 431.20380424 118.39433212 432.23172628 125.75 438.25 C132.25832087 446.2046144 134.92503883 452.6341237 134 463 C132.23436779 471.13622408 127.90351941 476.46278127 121 481 C113.49372964 484.70470763 105.71035501 484.76319734 97.7734375 482.3125 C90.99016686 479.37919378 86.76990323 473.96886993 83.0625 467.75 C81.39751078 461.87356744 80.70277578 455.13769036 83.08203125 449.3828125 C84.16018958 446.58418876 83.92181031 445.78624074 83 443 C79.55143262 435.94110068 74.18995203 430.1943069 67 427 C53.80281431 424.15402847 39.39551386 425.38128678 26 426 C26.01571045 426.59312988 26.0314209 427.18625977 26.04760742 427.79736328 C26.51762125 448.29155281 25.06817854 466.6367451 10.5625 482.5 C-0.85514758 494.4144019 -14.96949812 502.0549699 -31.71362305 502.43139648 C-50.47566847 502.47249445 -65.02160012 498.06169308 -78.8125 484.6875 C-82.36979173 481.090462 -84.56124007 478.05373958 -86.5625 473.4375 C-87.96602003 470.83914659 -88.92549755 469.33090615 -91.80908203 468.44287109 C-95.66914375 467.77551442 -99.53861098 467.5606107 -103.4453125 467.33984375 C-109.38134084 466.99478294 -114.5398854 465.29308777 -120 463 C-120.84691406 462.65195312 -121.69382813 462.30390625 -122.56640625 461.9453125 C-137.66178823 455.09451317 -148.21356494 442.53122573 -154.78515625 427.53125 C-156.63032088 422.16781327 -157.59292483 416.73450431 -158.45703125 411.140625 C-158.66453694 408.1433601 -158.66453694 408.1433601 -160 407 C-163.49886677 407.00915934 -166.98781795 407.13345796 -170.484375 407.2578125 C-174.24928115 406.98171938 -176.03275319 406.27488922 -179 404 C-180.44430855 401.11138291 -180.37688506 399.20352299 -180 396 C-177.98124096 393.27325934 -176.34234433 391.34575047 -172.96875 390.47680664 C-170.58079907 390.20022295 -168.21370918 390.04934228 -165.8125 389.9375 C-154.25921247 389.04139711 -146.62263556 385.67077638 -136.859375 379.390625 C-133.58998545 377.80059402 -131.59145948 377.57776756 -128 378 C-125.0625 380.0625 -125.0625 380.0625 -123 383 C-122.85097488 387.17270333 -123.41893036 389.23148854 -125.9375 392.5625 C-130.99008559 396.58394568 -136.55153713 400.74902799 -143 402 C-140.82623718 414.93653973 -138.18979206 426.16905966 -129 436 C-129 436.66 -129 437.32 -129 438 C-128.13568359 438.40605469 -128.13568359 438.40605469 -127.25390625 438.8203125 C-124.98037607 440.0102711 -123.01682437 441.37477718 -120.9375 442.875 C-110.28703916 450.06318232 -98.4708419 452.1391409 -85.875 450.4375 C-77.0231934 448.70161025 -68.48003232 444.23779813 -61.5625 438.5 C-58.6434313 436.15096403 -58.2106346 436.00345303 -54.1875 435.9375 C-49.63636364 437.45454545 -49.63636364 437.45454545 -48 440 C-46.7548375 443.2907866 -46.84932437 444.62853236 -48.18359375 447.91796875 C-53.26113935 456.53341709 -64.23356899 460.96101608 -73 465 C-66.40414313 475.32278413 -55.99202773 482.34538168 -44 485 C-29.52293403 485.87522401 -17.56847044 484.60520812 -6 475 C-2.00907024 471.04347481 1.67493254 467.16422019 4 462 C2.64455078 461.85304688 2.64455078 461.85304688 1.26171875 461.703125 C0.08222656 461.55359375 -1.09726562 461.4040625 -2.3125 461.25 C-3.48425781 461.11078125 -4.65601563 460.9715625 -5.86328125 460.828125 C-9 460 -9 460 -10.890625 458.10546875 C-12.44400969 455.15731964 -12.47004986 453.29034901 -12 450 C-10.68 448.35 -9.36 446.7 -8 445 C-2.06 445 3.88 445 10 445 C10 427.18 10 409.36 10 391 C5.524375 391.103125 1.04875 391.20625 -3.5625 391.3125 C-5.65960327 391.34984253 -5.65960327 391.34984253 -7.79907227 391.38793945 C-16.67290262 391.65041835 -23.46453515 392.46453515 -30 399 C-32.80593654 403.19916197 -34.15910666 407.29238533 -35 412.25 C-35.5517211 415.28914167 -35.97588513 416.96104522 -37.625 419.625 C-41.29847566 421.75174907 -43.78062539 421.4688194 -48 421 C-49.9375 419.9375 -49.9375 419.9375 -51 418 C-53.32177711 409.24868628 -50.57649597 401.04070065 -46.3984375 393.3125 C-40.44454344 383.46695452 -31.99861528 378.14246151 -21 375 C-10.77 375 -0.54 375 10 375 C10 341.34 10 307.68 10 273 C1.17894531 273.03480469 -7.64210938 273.06960938 -16.73046875 273.10546875 C-23.02295703 273.12274282 -29.31542754 273.1381222 -35.60792446 273.1507616 C-43.76251392 273.16739408 -51.91701144 273.18851922 -60.0715332 273.22631836 C-66.5271908 273.25622838 -72.98277908 273.2755768 -79.43850404 273.28226548 C-82.85650706 273.28617506 -86.27431177 273.29535772 -89.69225121 273.31719017 C-93.50874042 273.33891346 -97.3248165 273.34196898 -101.14135742 273.34057617 C-102.83960411 273.35675491 -102.83960411 273.35675491 -104.57215881 273.3732605 C-105.61397308 273.36913651 -106.65578735 273.36501251 -107.72917175 273.36076355 C-108.63160708 273.36352893 -109.53404242 273.36629431 -110.46382427 273.36914349 C-113.57215296 272.91672244 -115.46228438 271.82106351 -118 270 C-119.54586876 266.90826248 -119.29359521 264.40570448 -119 261 C-116.99948758 258.40434261 -115.80318325 257.16172716 -112.55563736 256.50780869 C-111.63753155 256.51149586 -110.71942574 256.51518303 -109.77349854 256.51898193 C-108.71842228 256.51347195 -107.66334602 256.50796196 -106.57629776 256.502285 C-105.41964489 256.51667744 -104.26299202 256.53106987 -103.07128906 256.54589844 C-101.21203104 256.54517523 -101.21203104 256.54517523 -99.31521225 256.54443741 C-95.96484769 256.54692991 -92.61547513 256.56670109 -89.26528931 256.59487915 C-86.12072326 256.61767455 -82.97618182 256.61873245 -79.83154297 256.62158203 C-70.6376196 256.64256366 -61.44380255 256.69840842 -52.25 256.75 C-21.43625 256.87375 -21.43625 256.87375 10 257 C10 215.42 10 173.84 10 131 C-12.21272229 131.15793188 -12.21272229 131.15793188 -34.42504883 131.36035156 C-38.75524902 131.37841797 -38.75524902 131.37841797 -40.79277039 131.3817749 C-42.19317229 131.38785244 -43.59355542 131.40178381 -44.99382019 131.42230225 C-59.90124451 131.62951629 -69.73319444 128.57021197 -80.71484375 118.4140625 C-87.4679206 111.36886782 -90.36054896 102.01738252 -91.15234375 92.47265625 C-90.97510503 89.59593557 -90.29502229 87.56794523 -89 85 C-86.07331445 83.21146994 -84.30515793 82.98779368 -80.875 83.125 C-77.41502618 84.17803551 -76.83606222 84.94837305 -75 88 C-74.19140625 91.0234375 -74.19140625 91.0234375 -73.5625 94.375 C-71.9053673 102.04245857 -69.67970276 106.49508418 -63 111 C-56.07660989 115.02069378 -48.65332846 114.47809769 -40.87890625 114.51171875 C-39.4091595 114.52858307 -37.93942702 114.54673566 -36.4697113 114.56611633 C-32.62127136 114.61343264 -28.77288929 114.6433602 -24.92425537 114.66955566 C-20.29593995 114.70472105 -15.66784667 114.76168103 -11.039711 114.81494904 C-4.02650297 114.89324748 2.98641858 114.9440149 10 115 C10 98.83 10 82.66 10 66 C4.06 66 -1.88 66 -8 66 C-12 62 -12 62 -12.5 58.5 C-12 55 -12 55 -10.546875 52.796875 C-6.73329432 50.10631195 -3.29326723 50.56542977 1.25 50.75 C2.09046875 50.76804688 2.9309375 50.78609375 3.796875 50.8046875 C5.86507395 50.85169202 7.93268441 50.92343276 10 51 C7.9290782 38.02222336 4.0246509 24.25185138 -7 16 C-10.22399475 13.74695874 -13.50245458 11.79780372 -17 10 C-17.66257812 9.65710938 -18.32515625 9.31421875 -19.0078125 8.9609375 C-28.07663277 5.15558939 -40.85656525 5.52173003 -50.0625 8.625 C-59.25650872 12.63769906 -67.39992296 18.59988445 -73 27 C-72.05640625 27.44988281 -71.1128125 27.89976563 -70.140625 28.36328125 C-51.69160248 37.48034826 -39.63991227 50.94334464 -32.1484375 70.1875 C-31.58450973 72.14020511 -31.25453859 73.98161653 -31 76 C-30.85691406 77.12792969 -30.71382812 78.25585938 -30.56640625 79.41796875 C-29.46412584 90.38395426 -29.46412584 90.38395426 -33 95 C-36.09173752 96.54586876 -38.59429552 96.29359521 -42 96 C-45.27668605 93.67751374 -45.95483345 92.18728542 -46.90625 88.2421875 C-47.1161607 86.78813939 -47.31354937 85.33224211 -47.5 83.875 C-49.66099525 69.89069648 -54.80417424 59.77439613 -65.828125 50.56640625 C-75.41064005 43.65527579 -87.06081825 40.12432505 -98.87109375 41.28125 C-111.61341024 43.4020239 -123.73149329 48.74543041 -132 59 C-139.91499616 70.23780116 -142.44350743 81.29597873 -141.875 95 C-142.02135037 98.51240888 -142.88119614 100.22925649 -145 103 C-148.45539249 104.72769624 -153.06937673 104.52576887 -156.79296875 103.51171875 C-167.97774344 100.91843471 -180.7042929 102.94562488 -190.62890625 108.4609375 C-192.83175701 109.8907945 -194.91795189 111.40112761 -197 113 C-197.86625 113.5775 -198.7325 114.155 -199.625 114.75 C-207.90900366 122.59800347 -213.80429011 133.39672519 -214.33984375 144.87890625 C-214.45288793 151.29798273 -214.54190807 157.73125898 -213 164 C-211.99839844 163.72285156 -210.99679688 163.44570312 -209.96484375 163.16015625 C-208.62245591 162.79405048 -207.28000457 162.42817749 -205.9375 162.0625 C-205.28072266 161.88009766 -204.62394531 161.69769531 -203.94726562 161.50976562 C-195.63945858 159.25888194 -184.79609833 156.4101069 -176.875 160.6875 C-174.75236589 163.3054154 -174.08198858 164.63846839 -174 168 C-175.06399073 171.81263347 -175.6251651 172.75011007 -179 175 C-181.04614258 175.4230957 -181.04614258 175.4230957 -183.39453125 175.67578125 C-184.26094238 175.77858398 -185.12735352 175.88138672 -186.02001953 175.98730469 C-186.94153809 176.09461914 -187.86305664 176.20193359 -188.8125 176.3125 C-208.17649797 178.85561418 -224.48279074 186.39780014 -237.2265625 201.66796875 C-248.96220747 217.24956478 -254.36828151 234.49167456 -252.59765625 254.0703125 C-249.56990426 273.97827659 -240.28485645 290.75605086 -224 303 C-222.36165371 304.04575295 -220.70632228 305.06927875 -219 306 C-218.7628125 305.44054687 -218.525625 304.88109375 -218.28125 304.3046875 C-213.84176945 296.3190365 -205.27937723 289.65266642 -197 286 C-193.45450174 285.40908362 -191.92997489 285.5978487 -188.6875 287 C-186.49255045 289.60142169 -186.02670743 291.65285822 -185.78125 295.015625 C-186 297 -186 297 -187.9375 299.625 C-189.55375278 300.87842052 -191.1754198 302.12615296 -192.8359375 303.3203125 C-203.76189779 311.22327982 -210.84932138 320.77544105 -214 334 C-215.59431185 348.79577705 -212.94265288 360.96574427 -204 373 C-201.5432939 376.68505915 -201.31112519 379.72036526 -202 384 C-204.0178635 387.10440538 -205.21290083 387.82508907 -208.8125 388.625 C-214.83152184 387.44479964 -217.7501049 383.81504466 -221.08203125 378.9765625 C-230.26578863 364.26982494 -234.05818144 346.92367217 -230.52832031 329.69824219 C-230.03131232 327.79553726 -229.51673286 325.89744306 -229 324 C-229 322.68 -229 321.36 -229 320 C-231.35824269 317.82852629 -231.35824269 317.82852629 -234.4375 315.8125 C-252.86939373 302.67797227 -264.48850795 283.43533325 -268.71875 261.2265625 C-272.58288316 237.04650191 -267.08142598 214.27235398 -253.1875 194.1875 C-246.40446292 185.35625173 -238.64899569 177.64644933 -229 172 C-229.144375 171.46117187 -229.28875 170.92234375 -229.4375 170.3671875 C-233.8937185 150.62366387 -231.72145917 131.00252473 -221.14892578 113.76025391 C-213.02814355 101.31851147 -200.11545623 92.41260376 -186 88 C-185.34644531 87.77699219 -184.69289063 87.55398437 -184.01953125 87.32421875 C-175.9886372 85.04077305 -167.26482554 85.83951795 -159 86 C-158.87044922 84.71029297 -158.87044922 84.71029297 -158.73828125 83.39453125 C-156.56112136 65.07842463 -149.10047761 50.11274509 -135 38 C-122.34016412 28.34993193 -108.65913478 24.68083195 -93 24 C-92.01 24.33 -91.02 24.66 -90 25 C-89.814375 24.195625 -89.62875 23.39125 -89.4375 22.5625 C-84.11061734 9.36109515 -71.18427086 -0.92724383 -58.51171875 -6.546875 C-39.15366775 -13.96725103 -17.18501898 -11.48225227 0 0 Z M58 54 C56.6534392 57.72284456 56.8115572 59.4346716 58.0625 63.1875 C60.43595978 66.63284484 62.00275491 67.77007844 66 69 C70.14205294 68.42868235 72.3230236 67.60754292 75.4375 64.8125 C77.45949 61.172918 77.66000039 59.10666911 77 55 C74.04663048 51.42486848 71.87994881 49.25635666 67.25 48.625 C62.79453881 49.13909168 61.03105225 50.75747899 58 54 Z M131 67 C128.95483551 70.83468342 128.85917253 72.44607861 129.9375 76.6875 C132.51953414 80.83440331 134.29722076 81.80437816 139 83 C142.45390715 82.39048697 144.49853923 81.34310474 147.375 79.375 C149.3023605 76.5580885 149.56297959 74.36084845 149.3984375 70.96875 C148.77537793 67.89010271 147.21289435 66.14780922 145 64 C139.59356448 61.29678224 134.91463335 62.74982665 131 67 Z M60 222 C58.21364085 226.01930808 57.69828841 228.01943733 59 232.25 C61.41114597 235.56532571 63.11953873 236.70651291 67 238 C70.96239846 238 72.64791407 237.25258338 75.875 234.9375 C78.26928149 231.62775794 78.74136092 229.92359148 78.5 225.93359375 C77.65163253 222.65279768 75.5881706 221.03356261 73 219 C67.80117281 216.4005864 63.76140003 217.92514997 60 222 Z M119 292 C117.44975536 295.10048928 117.71007985 297.57894218 118 301 C119.79562405 303.75329021 121.05254922 305.52627461 124 307 C129.89762735 307.63056242 129.89762735 307.63056242 134.9375 304.875 C137.25258338 301.64791407 138 299.96239846 138 296 C136.47126129 292.02527937 135.57219503 290.38146335 132 288 C126.12811544 287.43175311 123.29049745 287.57948747 119 292 Z M106 358 C104.75161619 361.40528996 104.75161619 361.40528996 105 365 C107.22979668 369.25798376 107.22979668 369.25798376 111 372 C116.87637814 372.61782041 116.87637814 372.61782041 121.9375 369.9375 C124.40599406 366.42176604 125 364.28616677 125 360 C123.41161066 356.42612398 122.28365642 355.18910428 119 353 C112.76239239 352.29575398 109.8290427 352.54651494 106 358 Z M98.625 452.6875 C97.65563011 456.27416858 97.87377513 459.46147413 99 463 C101.35741713 465.55386855 103.21772561 466.69912523 106.4375 467.9375 C110.05105845 468.02563557 111.99232688 466.96152595 115 465 C117.58428621 461.99889343 117.99143971 460.47937614 118.0625 456.5 C116.68655935 451.96748964 114.99062431 450.48472834 111 448 C105.76464102 447.14524751 101.99828315 448.54756159 98.625 452.6875 Z " fill="#ffffff" transform="translate(274,10)"/>
<path d="M0 0 C3.21719404 2.78350586 5.92574218 6.04918211 8.66210938 9.296875 C10.3701322 11.16784052 11.83123211 12.68575194 14 14 C16.93563825 13.98268264 19.29289567 13.06307383 22 12 C29.72798739 10.91757831 36.72388073 12.92347908 43.046875 17.47265625 C48.46050621 22.365746 51.294947 28.32629816 52.37890625 35.51171875 C52.77144116 43.57767803 50.30102301 50.85891303 44.875 56.875 C38.85535215 62.30423463 31.58696483 64.75515272 23.51953125 64.38671875 C16.37243776 63.289723 10.65335613 60.61140004 6 55 C5.278125 54.195625 4.55625 53.39125 3.8125 52.5625 C-0.70096546 46.18139367 -0.40917596 39.54596602 0 32 C0.31066406 30.87078125 0.62132812 29.7415625 0.94140625 28.578125 C1.00769934 24.52982716 0.69376908 24.14112024 -1.9296875 21.32421875 C-3.22515068 20.09101198 -4.54123858 18.87918127 -5.875 17.6875 C-7.1864506 16.46390386 -8.49642073 15.23871844 -9.8046875 14.01171875 C-10.68616455 13.21447388 -10.68616455 13.21447388 -11.58544922 12.40112305 C-13.6912705 10.31529144 -13.98878547 9.10317369 -14.3125 6.125 C-14 3 -14 3 -12.1875 0.6875 C-8.0033149 -2.54029993 -4.57142932 -2.26737214 0 0 Z M19 31 C16.68162542 33.31837458 16.06476336 34.62761069 15.5 37.875 C16.1955589 42.22224315 17.77370405 44.04828243 21 47 C24.90448895 48.18529129 26.96301745 48.42422013 30.75 46.875 C33.36747781 44.69376849 34.70501017 43.16553069 36 40 C35.93220153 36.1354873 35.56576361 33.82688528 33.375 30.625 C28.28867883 27.14488551 23.76642302 27.16038146 19 31 Z " fill="#ffffff" transform="translate(440,221)"/>
<path d="M0 0 C12.57543112 6.3584982 20.73022354 15.41509895 25.32739258 28.76171875 C26.38946113 33.23790468 26.582022 37.32885802 26.55004883 41.91015625 C26.54158936 43.17255127 26.54158936 43.17255127 26.53295898 44.46044922 C26.32672683 55.01504335 23.57942441 62.17434458 17.23754883 70.59765625 C16.49504883 71.62890625 15.75254883 72.66015625 14.98754883 73.72265625 C5.53390065 83.60601571 -5.41250661 87.64329991 -18.81713867 88.8125 C-22.26128506 88.56126916 -24.01631378 87.6498772 -26.76245117 85.59765625 C-28.20675972 82.70903916 -28.13933623 80.80117924 -27.76245117 77.59765625 C-24.08796562 72.96821965 -21.34822882 71.95254213 -15.57495117 71.22265625 C-7.17488283 69.85491735 -1.00345967 66.97434601 4.14379883 60.0234375 C9.19577567 51.8616353 9.99212394 45.16240561 9.23754883 35.59765625 C7.86155642 30.29804194 6.1056657 26.44360627 2.23754883 22.59765625 C2.23754883 21.93765625 2.23754883 21.27765625 2.23754883 20.59765625 C1.67036133 20.31921875 1.10317383 20.04078125 0.51879883 19.75390625 C-0.97765748 18.9954284 -2.45815975 18.20442966 -3.91870117 17.37890625 C-8.68897764 14.77115512 -12.72181078 13.28619733 -18.13745117 12.59765625 C-23.43986775 11.86158814 -23.43986775 11.86158814 -26.51245117 9.34765625 C-28.00600147 6.06184559 -28.36944091 4.16372098 -27.76245117 0.59765625 C-21.2168175 -7.75366947 -8.41344161 -3.9680455 0 0 Z " fill="#ffffff" transform="translate(123.762451171875,135.40234375)"/>
<path d="M0 0 C0.66759338 -0.00335861 1.33518677 -0.00671722 2.02301025 -0.01017761 C4.20587069 -0.0195936 6.38865379 -0.02162534 8.5715332 -0.02270508 C10.09894339 -0.02592196 11.62635327 -0.02928635 13.15376282 -0.03279114 C16.343564 -0.03875735 19.53333817 -0.0406334 22.72314453 -0.04003906 C26.80867598 -0.03993707 30.89403508 -0.05363833 34.97952557 -0.07081127 C38.12879737 -0.08192593 41.27802725 -0.08395851 44.42731667 -0.08342934 C45.93399466 -0.08460836 47.44067378 -0.08902583 48.94733238 -0.0967617 C51.05094971 -0.10655977 53.15418908 -0.10368552 55.2578125 -0.09765625 C56.45359421 -0.09908127 57.64937592 -0.10050629 58.88139343 -0.10197449 C61.86283796 0.13943567 63.49064612 0.46735625 65.93481445 2.14526367 C68.27650209 5.65779513 68.43105123 7.00995723 67.93481445 11.14526367 C66.33917236 13.80233765 66.33917236 13.80233765 63.93481445 16.14526367 C60.81219482 16.76431274 60.81219482 16.76431274 57.09008789 16.75708008 C56.40985062 16.7627449 55.72961334 16.76840973 55.02876282 16.77424622 C52.7833418 16.78773294 50.53953974 16.76680921 48.29418945 16.74682617 C46.72722268 16.75232877 45.16026312 16.76045557 43.59332275 16.77108765 C39.46656909 16.79398281 35.34034475 16.78975456 31.21356201 16.77728271 C24.62324573 16.75898998 18.03324346 16.7690854 11.44300079 16.80314255 C9.14964277 16.80921249 6.85696429 16.79602583 4.56365967 16.78115845 C-2.59064771 16.77599957 -8.57277202 16.93917068 -15.06518555 20.14526367 C-15.97268555 20.57838867 -16.88018555 21.01151367 -17.81518555 21.45776367 C-23.07886525 25.40552345 -25.31662157 31.11133558 -26.48706055 37.41870117 C-27.64700673 43.59841445 -27.64700673 43.59841445 -29.69018555 46.27026367 C-33.30731455 47.60289015 -36.42874329 47.39601451 -40.06518555 46.14526367 C-42.54145837 43.5142238 -42.98529999 41.69305036 -43.50268555 38.14526367 C-43.05889002 28.52969395 -39.14909978 19.68294615 -32.81518555 12.64526367 C-22.62608837 3.38244805 -13.90975067 0.04425184 0 0 Z " fill="#ffffff" transform="translate(130.065185546875,321.854736328125)"/>
<path d="M0 0 C5.93070462 4.35085519 10.3828391 10.08323493 11.84765625 17.35546875 C12.9403232 25.51977796 11.35842814 31.49611315 6.84765625 38.35546875 C2.78831049 43.26941362 -2.10660805 46.34022352 -8.15234375 48.35546875 C-15.94254688 49.06898585 -22.45326168 48.60097755 -29.15234375 44.35546875 C-31.96484375 41.91796875 -31.96484375 41.91796875 -34.15234375 39.35546875 C-34.87421875 38.55109375 -35.59609375 37.74671875 -36.33984375 36.91796875 C-40.60407994 30.88922104 -40.92202184 24.52614059 -40.15234375 17.35546875 C-38.41035551 10.17889445 -35.06618185 4.80634481 -29.15234375 0.35546875 C-20.27752943 -4.77262225 -8.97127943 -5.10276058 0 0 Z M-21.15234375 15.35546875 C-23.73662996 18.35657532 -24.14378346 19.87609261 -24.21484375 23.85546875 C-22.8389031 28.38797911 -21.14296806 29.87074041 -17.15234375 32.35546875 C-12.93391798 33.23430745 -11.51637148 32.58212753 -7.83984375 30.29296875 C-4.64204434 26.79769962 -4.06836673 25.05818162 -4.15234375 20.35546875 C-5.57514652 16.6729204 -6.80128127 15.56324042 -10.21484375 13.54296875 C-14.90770488 11.64585468 -16.84651416 12.80712062 -21.15234375 15.35546875 Z " fill="#ffffff" transform="translate(463.15234375,404.64453125)"/>
<path d="M0 0 C6.94435971 6.23480202 10.22770233 12.10795043 10.95703125 21.3828125 C11.08943503 29.44740666 8.53079471 35.17677247 3 41 C-2.51050378 46.08463346 -8.0983421 47.64530383 -15.4375 48.3125 C-22.78248542 47.66820303 -29.64782509 45.20572236 -35 40 C-41.00835215 32.04593796 -41.92006414 24.88804561 -41 15 C-38.70047912 7.25587364 -34.15402033 1.87793492 -27.16015625 -2.02734375 C-18.35628224 -5.93417537 -8.13123337 -5.05346074 0 0 Z M-23 15 C-25.45639458 18.68459187 -25.80884302 21.72230442 -25 26 C-22.60161784 29.31541064 -20.92940514 30.68360676 -17.0625 32 C-13.15544281 32 -11.21525285 31.21495196 -8 29 C-5.40620835 25.43353648 -4.90665039 23.77346819 -5.4375 19.375 C-7.33635286 15.27347782 -8.96992379 13.97552755 -13 12 C-17.21812789 11.27983182 -19.59641644 12.51630389 -23 15 Z " fill="#ffffff" transform="translate(497,327)"/>
<path d="M0 0 C6.27149848 4.453496 9.9690757 8.99710864 11.3125 16.75 C12.58301817 25.62190894 10.93171234 31.71648381 5.703125 38.98828125 C0.89572092 44.66675167 -4.70492804 47.46379018 -12.16015625 48.21875 C-20.30158909 48.55390332 -26.84884277 45.93752132 -33.16796875 40.83984375 C-38.55265199 35.43219811 -40.31442169 29.51926445 -40.625 22 C-40.29038082 13.67973926 -37.80210963 7.29845261 -31.6875 1.5625 C-22.09138133 -5.72229547 -10.29945425 -6.31570308 0 0 Z M-22 15 C-24.45639458 18.68459187 -24.80884302 21.72230442 -24 26 C-21.60161784 29.31541064 -19.92940514 30.68360676 -16.0625 32 C-12.25275797 32 -10.19501129 31.033189 -7 29 C-4.54100646 25.31150969 -4.19885467 22.28112038 -5 18 C-7.55704348 14.35815019 -9.22272709 13.22207798 -13.5 12 C-17.4263416 12 -18.96582334 12.57265867 -22 15 Z " fill="#ffffff" transform="translate(471,135)"/>
<path d="M0 0 C10.01324801 2.59462779 18.49444499 8.25260329 23.91796875 17.14453125 C29.06935129 27.26375539 30.63003704 36.99710728 28.3515625 48.18359375 C24.76681212 58.98380323 17.80421754 66.42564519 8 72 C1.66370396 75.08578715 -5.00985081 76.02628618 -12 75 C-14.99447974 73.07497731 -15.68040056 71.83095855 -16.9375 68.5625 C-17.02066111 65.1528946 -16.08657139 63.66217729 -14 61 C-10.85085261 59.08374029 -7.71119451 58.43120191 -4.125 57.6875 C2.11442003 56.15421187 5.4024045 54.58598875 9.2421875 49.28515625 C12.50949226 43.77580442 12.89595181 38.27166269 12 32 C10.20649749 26.0552445 7.03567086 22.49413897 2 19 C-1.99713914 16.89039879 -6.27115532 16.35269149 -10.6953125 15.66015625 C-13.307184 14.91201001 -14.33382666 14.11536113 -16 12 C-17.03152764 8.98476536 -17.1105941 7.39629554 -16.25 4.3125 C-12.90100019 -1.88314964 -6.08850429 -0.67252574 0 0 Z " fill="#ffffff" transform="translate(168,356)"/>
<path d="M0 0 C8.80510019 3.46284613 15.7689381 11.16468104 19.57421875 19.7265625 C22.12617086 30.57235895 21.66021619 40.1153065 15.80078125 49.8125 C9.57874753 58.66819879 1.80467354 62.88558738 -8.67578125 64.9140625 C-12.59336573 65.21541515 -15.41883584 65.24045208 -18.67578125 62.9140625 C-20.75737145 60.23773224 -20.67165716 58.79652582 -20.55078125 55.3515625 C-19.67578125 51.9140625 -19.67578125 51.9140625 -18.17578125 50.1015625 C-15.7947552 48.97057513 -13.86828385 48.4866051 -11.30078125 47.9765625 C-5.60424003 46.82602954 -2.0843387 44.62717291 1.63671875 40.1015625 C3.83489489 35.94945202 4.89553289 32.56334225 3.8828125 27.8671875 C2.0777506 22.37979932 -0.69916154 18.48505623 -5.92578125 15.7265625 C-8.56351439 14.88963505 -8.56351439 14.88963505 -10.88671875 14.53125 C-17.19566666 13.40829811 -17.19566666 13.40829811 -19.80078125 10.7265625 C-20.95602749 7.013271 -20.71332714 4.64922769 -19.67578125 0.9140625 C-14.94543738 -4.9515639 -6.11289909 -2.00330843 0 0 Z " fill="#ffffff" transform="translate(248.67578125,181.0859375)"/>
<path d="M0 0 C3.12175109 6.24350218 1.20819298 15.28273449 -0.625 21.6875 C-5.64495605 36.30702112 -15.16708578 47.33659518 -28.6875 54.6875 C-36.73517456 58.53153562 -46.0635794 60.95747364 -55 60 C-59.56944444 57.86111111 -59.56944444 57.86111111 -61 55 C-61.57448577 48.79555371 -61.57448577 48.79555371 -59.45703125 45.86328125 C-56.26810453 43.44496957 -53.2335063 43.06789856 -49.375 42.5625 C-38.9749445 40.90329223 -29.5752954 37.22936625 -23.15234375 28.484375 C-19.12559328 22.43184657 -16.63337598 17.25028617 -15.5546875 10.01171875 C-15.39226562 8.93535156 -15.22984375 7.85898438 -15.0625 6.75 C-14.92972656 5.73421875 -14.79695313 4.7184375 -14.66015625 3.671875 C-13.95016821 0.79831395 -13.30534821 -0.21408468 -11 -2 C-6.92938706 -4.03530647 -3.78629559 -1.92886756 0 0 Z " fill="#ffffff" transform="translate(205,179)"/>
<path d="M0 0 C2.60856477 2.60856477 2.63086935 4.52030292 3.3125 8.125 C5.15095267 16.41175683 7.92404234 21.99313881 14.86328125 26.9921875 C23.53709015 31.0833076 33.07456407 30.35097699 42.44140625 30.390625 C44.19517578 30.42542969 44.19517578 30.42542969 45.984375 30.4609375 C47.57330566 30.47326416 47.57330566 30.47326416 49.19433594 30.48583984 C52.66133665 31.12119518 53.82098528 32.29049217 56 35 C57.18008862 37.61305338 57.05863256 38.7596065 56.375 41.5625 C54.6498238 44.6207669 53.12868362 45.4478256 50 47 C47.31201172 47.37231445 47.31201172 47.37231445 44.4296875 47.36328125 C43.3675 47.36263672 42.3053125 47.36199219 41.2109375 47.36132812 C40.11007813 47.34521484 39.00921875 47.32910156 37.875 47.3125 C36.79734375 47.31572266 35.7196875 47.31894531 34.609375 47.32226562 C19.96352487 47.22521481 7.98105979 44.53429127 -2.95703125 34.3125 C-6.49242634 30.31067612 -8.79050163 25.83093711 -11 21 C-11.45375 20.030625 -11.9075 19.06125 -12.375 18.0625 C-13.38493757 13.11380591 -13.82146573 7.99841015 -13 3 C-8.8968258 -2.15079315 -5.94755563 -2.404331 0 0 Z " fill="#ffffff" transform="translate(71,236)"/>
<path d="M0 0 C2.60683088 2.11805009 2.93044478 3.10333589 3.375 6.4375 C3 9.625 3 9.625 1.1875 12.375 C-2.68375246 15.1076488 -5.72787046 15.43899396 -10.33984375 16.109375 C-14.93926447 17.00089267 -17.8168426 19.13509809 -20.6875 22.75 C-22.27108299 26.21880084 -23.22608167 29.724979 -24.15625 33.41796875 C-25 35.625 -25 35.625 -28 37.625 C-31.92257996 38.05291781 -34.10751408 38.25913473 -37.375 35.9375 C-40.13947177 32.00344402 -40.17748345 29.67215235 -39.375 24.9375 C-36.79950166 15.95714394 -32.85715829 8.90052056 -25 3.625 C-17.38204962 -0.48468376 -8.34673245 -3.8255857 0 0 Z " fill="#ffffff" transform="translate(189,64.375)"/>
<path d="M0 0 C0.76217331 -0.00570007 1.52434662 -0.01140015 2.30961609 -0.01727295 C3.92441417 -0.02672581 5.53923157 -0.03325807 7.15405273 -0.03710938 C9.61671967 -0.04679633 12.07854531 -0.07780803 14.54101562 -0.109375 C16.11067213 -0.1159071 17.68033461 -0.12115676 19.25 -0.125 C19.98350174 -0.1373468 20.71700348 -0.1496936 21.47273254 -0.16241455 C25.93426453 -0.14311836 28.78183524 0.44116695 32.32421875 3.203125 C33.87008751 6.29486252 33.61781396 8.79742052 33.32421875 12.203125 C31.83764648 14.39428711 31.83764648 14.39428711 29.32421875 16.203125 C26.35564354 16.61305591 23.76493825 16.78805144 20.796875 16.76953125 C19.97094345 16.77572983 19.1450119 16.78192841 18.29405212 16.78831482 C16.54996925 16.79540789 14.80581859 16.79224783 13.06176758 16.77954102 C10.39862874 16.76568696 7.73901329 16.79973398 5.07617188 16.83789062 C3.37890539 16.838842 1.68163453 16.836982 -0.015625 16.83203125 C-1.20489845 16.85191856 -1.20489845 16.85191856 -2.41819763 16.87220764 C-6.63995326 16.80142273 -8.2365112 16.54621442 -11.68188477 13.85522461 C-13.67578125 11.203125 -13.67578125 11.203125 -14.23828125 8.140625 C-13.5575661 4.58577919 -12.47505666 3.426079 -9.67578125 1.203125 C-6.60389666 -0.3328173 -3.3720635 0.01937717 0 0 Z " fill="#ffffff" transform="translate(225.67578125,321.796875)"/>
</svg>
