<?xml version="1.0" encoding="UTF-8"?>
<svg version="1.1" xmlns="http://www.w3.org/2000/svg" width="512" height="512">
<path d="M0 0 C3.8902915 0.96010098 6.72297999 3.31125119 9.83056641 5.74804688 C11.33030348 6.86129477 12.83301586 7.97054342 14.33837891 9.07617188 C15.10956055 9.64658203 15.88074219 10.21699219 16.67529297 10.8046875 C63.59709866 44.71982342 122.18248489 68.28116596 180.20019531 70.64013672 C188.16997964 71.05583762 188.16997964 71.05583762 192.20947266 73.16210938 C194.51855149 76.14446173 194.8804891 78.12365771 195.26806641 81.87304688 C195.33687012 82.51878662 195.40567383 83.16452637 195.4765625 83.82983398 C196.41170757 93.35565264 196.76299759 102.9337998 197.01806641 112.49804688 C197.04143066 113.34125488 197.06479492 114.18446289 197.08886719 115.05322266 C197.9259382 150.77997629 194.29573157 186.52114218 187.51806641 221.56054688 C187.37462799 222.30409424 187.23118958 223.0476416 187.08340454 223.8137207 C185.34140274 232.75645269 183.29355483 241.49763027 180.67236328 250.22631836 C179.60705429 255.55326081 180.91134202 259.6732561 183.01806641 264.56054688 C185.46739541 270.26063973 186.14308116 275.11969776 186.11572266 281.33007812 C186.1125 282.62236328 186.10927734 283.91464844 186.10595703 285.24609375 C186.09760305 286.60091214 186.08913813 287.95572985 186.08056641 289.31054688 C186.0755464 290.68489422 186.07098437 292.05924332 186.06689453 293.43359375 C186.05512308 296.78845611 186.03867924 300.14322909 186.01806641 303.49804688 C186.609021 303.54703125 187.19997559 303.59601563 187.80883789 303.64648438 C196.74084892 304.49220484 203.17482919 307.13084493 209.39306641 313.81054688 C216.01250562 321.84748216 218.15601231 328.88149842 218.19506836 339.23486328 C218.20163956 339.99820984 218.20821075 340.7615564 218.21498108 341.54803467 C218.2346311 344.06522741 218.24635988 346.58236064 218.25634766 349.09960938 C218.26246095 350.39604433 218.26246095 350.39604433 218.26869774 351.71866989 C218.28952603 356.29600532 218.30384012 360.87331109 218.31323242 365.45068359 C218.32427286 370.15451977 218.35865463 374.85787981 218.39840412 379.56154823 C218.4246782 383.1992169 218.43293392 386.83677408 218.4365139 390.47452927 C218.44135425 392.20710836 218.45289453 393.93968334 218.4715519 395.67216873 C218.61074306 409.45700615 217.46179953 419.95217949 207.46337891 430.33007812 C201.69330518 435.44571857 195.53540672 438.59964195 187.76998901 438.6452179 C186.50867409 438.65595085 186.50867409 438.65595085 185.22187805 438.66690063 C183.85037849 438.67093399 183.85037849 438.67093399 182.45117188 438.67504883 C180.99672417 438.68490562 180.99672417 438.68490562 179.51289368 438.69496155 C176.3036796 438.71467224 173.09451232 438.72635345 169.88525391 438.73632812 C168.78711491 438.74040365 167.68897591 438.74447918 166.55755997 438.74867821 C160.74296508 438.7695314 154.92839372 438.78383529 149.11376953 438.79321289 C143.12182022 438.80426385 137.13024362 438.83865112 131.13842583 438.87838459 C126.5194329 438.90459093 121.90052816 438.91290841 117.28146744 438.91649437 C115.07358412 438.92135144 112.86570451 438.93294017 110.65789413 438.95153236 C107.55874276 438.97600436 104.4605475 438.97494362 101.36132812 438.96801758 C100.00804665 438.98723267 100.00804665 438.98723267 98.62742615 439.00683594 C90.54665038 438.94142242 82.64128433 436.73135116 76.64306641 431.06054688 C76.00626953 430.45984375 75.36947266 429.85914063 74.71337891 429.24023438 C69.01806641 423.3874478 69.01806641 423.3874478 69.01806641 420.49804688 C68.12087891 421.11550781 67.22369141 421.73296875 66.29931641 422.36914062 C48.80328884 434.29253514 30.26113572 443.98475737 10.89306641 452.49804688 C10.00401611 452.89636719 9.11496582 453.2946875 8.19897461 453.70507812 C1.53995751 456.57642651 -2.69602068 457.50739296 -9.59912109 454.81054688 C-11.35726741 454.05243941 -13.10965553 453.28087812 -14.85693359 452.49804688 C-16.25141724 451.88509766 -16.25141724 451.88509766 -17.67407227 451.25976562 C-25.91476004 447.60258448 -34.01747255 443.72239215 -41.98193359 439.49804688 C-42.96105713 438.98056885 -42.96105713 438.98056885 -43.95996094 438.45263672 C-62.96750202 428.31620845 -80.58585487 415.75190215 -96.28662109 401.00585938 C-98.45192686 398.99118358 -100.6482351 397.07662846 -102.91943359 395.18554688 C-113.55520416 385.91786298 -122.59071441 374.78655038 -130.98193359 363.49804688 C-131.4651709 362.8499707 -131.9484082 362.20189453 -132.44628906 361.53417969 C-140.49276955 350.6571605 -147.42927828 339.32522274 -153.98193359 327.49804688 C-154.36945801 326.81339355 -154.75698242 326.12874023 -155.15625 325.42333984 C-187.15966341 268.83819754 -199.58759577 200.82349864 -200.98193359 136.49804688 C-201.00384766 135.55960938 -201.02576172 134.62117187 -201.04833984 133.65429688 C-201.31098478 120.48703086 -200.88237639 107.38913563 -200.10693359 94.24804688 C-200.06772797 93.54633362 -200.02852234 92.84462036 -199.98812866 92.12164307 C-199.87344023 90.11631987 -199.74435576 88.11183598 -199.61474609 86.10742188 C-199.54143066 84.95209961 -199.46811523 83.79677734 -199.39257812 82.60644531 C-198.85186366 78.51347472 -198.16515074 75.67559728 -195.19775391 72.72241211 C-192.50258585 71.23318031 -190.60003643 71.04491463 -187.52880859 70.90820312 C-185.90591919 70.81877441 -185.90591919 70.81877441 -184.25024414 70.72753906 C-183.08920166 70.67243164 -181.92815918 70.61732422 -180.73193359 70.56054688 C-121.43344009 66.8948074 -67.02963393 41.9145464 -18.31787109 9.13476562 C-17.38942383 8.51263184 -16.46097656 7.89049805 -15.50439453 7.24951172 C-13.34321981 5.74890512 -11.31924546 4.16462998 -9.27099609 2.51757812 C-5.81109497 0.39314953 -3.97286637 -0.2786637 0 0 Z M-1.98193359 18.49804688 C-2.85591797 19.09230469 -3.72990234 19.6865625 -4.63037109 20.29882812 C-58.98659455 57.03148099 -117.2824814 81.8520002 -182.98193359 87.49804688 C-183.84149883 94.72309308 -184.15382656 101.85421218 -184.18505859 109.12695312 C-184.19211823 110.22197647 -184.19917786 111.31699982 -184.20645142 112.44520569 C-184.61957366 195.53597647 -170.73577358 283.66791565 -118.98193359 351.49804688 C-118.55203125 352.0692627 -118.12212891 352.64047852 -117.67919922 353.22900391 C-110.95262786 362.14293843 -103.72546582 370.45611264 -95.98193359 378.49804688 C-95.22928223 379.28356934 -95.22928223 379.28356934 -94.46142578 380.08496094 C-87.7080575 387.09890934 -80.7157538 393.56113041 -72.98193359 399.49804688 C-72.32370605 400.01093262 -71.66547852 400.52381836 -70.98730469 401.05224609 C-54.78365614 413.62122801 -37.36897556 423.85300975 -18.83740234 432.60888672 C-16.94210921 433.51713114 -15.07280178 434.46887343 -13.20068359 435.42382812 C-11.98294992 436.01317234 -10.76424025 436.60050532 -9.54443359 437.18554688 C-8.49384766 437.70503906 -7.44326172 438.22453125 -6.36083984 438.75976562 C-1.55176558 439.81053445 1.57846767 438.36437803 6.01806641 436.49804688 C6.6998999 436.22968018 7.3817334 435.96131348 8.08422852 435.68481445 C27.04049191 428.07332609 44.50059687 417.43074172 61.01806641 405.49804688 C61.73313354 405.09581909 62.44820068 404.69359131 63.18493652 404.2791748 C65.31533529 402.56309652 65.31533529 402.56309652 65.51013184 399.47790527 C65.50694946 398.2386731 65.50376709 396.99944092 65.50048828 395.72265625 C65.50635704 394.69511734 65.50635704 394.69511734 65.51234436 393.64682007 C65.51832174 392.15887878 65.5151449 390.6708791 65.50392151 389.18296814 C65.4866466 386.81855514 65.49417663 384.455364 65.50817871 382.09094238 C65.53782715 376.2122151 65.52471117 370.33371969 65.51300049 364.45495605 C65.50474815 359.49709676 65.51295444 354.53976992 65.54212952 349.58198547 C65.54915695 347.26927334 65.53262279 344.95753293 65.51501465 342.64489746 C65.51843435 330.87120271 67.33740779 321.16268169 75.74853516 312.43945312 C82.07915542 307.02410326 89.03068503 305.12601349 97.01806641 303.49804688 C97.03994019 302.21341553 97.03994019 302.21341553 97.06225586 300.90283203 C97.12387451 297.67819548 97.19812636 294.45414809 97.28051758 291.22998047 C97.31345559 289.84337033 97.34158081 288.45663611 97.36450195 287.06982422 C97.6102245 272.58787832 100.28701863 260.16207804 110.22119141 249.12695312 C120.25325808 240.0326666 132.03153989 237.08218694 145.21337891 237.27148438 C150.18863407 237.56775214 154.39054708 238.73148922 159.01806641 240.49804688 C160.21431641 240.88992188 161.41056641 241.28179687 162.64306641 241.68554688 C163.42681641 241.95367187 164.21056641 242.22179687 165.01806641 242.49804688 C167.09537062 237.26290522 168.68212934 232.19146652 169.73681641 226.65039062 C169.9515435 225.56236649 169.9515435 225.56236649 170.17060852 224.45236206 C170.62836278 222.11499364 171.07438282 219.7756243 171.51806641 217.43554688 C171.67213959 216.63192719 171.82621277 215.8283075 171.98495483 215.00033569 C177.6275286 185.492474 180.38486146 156.09117288 180.22387695 126.03515625 C180.20528968 122.44459097 180.20337054 118.85428093 180.20361328 115.26367188 C180.19870711 112.94596133 180.19288277 110.6282525 180.18603516 108.31054688 C180.18436592 106.72608765 180.18436592 106.72608765 180.18266296 105.10961914 C180.14470509 99.16146827 179.78576499 93.39764776 179.01806641 87.49804688 C178.30078369 87.43335205 177.58350098 87.36865723 176.84448242 87.30200195 C114.71159722 81.55032843 58.69878757 59.09822383 7.01806641 24.49804688 C6.01388672 23.83289063 5.00970703 23.16773438 3.97509766 22.48242188 C1.98441935 21.16147565 -0.00195886 19.83495289 -1.98193359 18.49804688 Z M119.89306641 262.56054688 C110.21902197 275.80978164 113.01806641 286.6234283 113.01806641 303.49804688 C131.82806641 303.49804688 150.63806641 303.49804688 170.01806641 303.49804688 C171.24498113 279.31764934 171.24498113 279.31764934 160.50244141 259.92773438 C154.84130932 254.95189722 149.1481307 252.81574413 141.76806641 252.24804688 C133.10697396 252.82545304 125.90942568 256.27412659 119.89306641 262.56054688 Z M84.01806641 327.49804688 C81.48772595 332.52366179 80.64070031 336.1713583 80.62988281 341.8828125 C80.62462585 342.58460129 80.6193689 343.28639008 80.61395264 344.00944519 C80.60084833 346.30796173 80.60945605 348.60577443 80.61962891 350.90429688 C80.61760541 352.51420219 80.61469167 354.1241066 80.6109314 355.73400879 C80.60652102 359.09961722 80.6128974 362.46498595 80.62695312 365.83056641 C80.6440444 370.13115777 80.63419628 374.43118734 80.61623573 378.73175812 C80.60536296 382.0536111 80.60886019 385.37533225 80.61661911 388.69718933 C80.61861147 390.28232389 80.61619591 391.86747066 80.60918045 393.45259094 C80.60150798 395.67314069 80.61324962 397.89279751 80.62988281 400.11328125 C80.63226959 401.37346069 80.63465637 402.63364014 80.63711548 403.93200684 C81.28526277 409.99924284 83.6616983 415.14167876 88.01806641 419.49804688 C93.55913539 422.41809361 98.02044412 422.93566354 104.22290039 422.90209961 C105.1181543 422.90896286 106.0134082 422.91582611 106.93579102 422.92289734 C109.87874462 422.94111518 112.82116257 422.93733501 115.76416016 422.93164062 C117.8200752 422.93620479 119.87598871 422.94151107 121.93190002 422.94752502 C126.23485524 422.95644627 130.53762475 422.95404414 134.84057617 422.9440918 C140.34283206 422.93260292 145.8444461 422.95281769 151.3466177 422.98200893 C155.59068341 423.00039318 159.83459593 423.00007402 164.07869148 422.99437141 C166.1067908 422.99421848 168.13490068 423.00024002 170.16296196 423.01266289 C173.00365849 423.0276132 175.84317712 423.01686616 178.68383789 422.99975586 C179.51369705 423.00942383 180.34355621 423.0190918 181.19856262 423.02905273 C187.65068154 422.94805807 193.13770328 421.2866787 197.85791016 416.71679688 C198.22013672 416.14960938 198.58236328 415.58242188 198.95556641 414.99804688 C199.33583984 414.43085938 199.71611328 413.86367188 200.10791016 413.27929688 C202.21800905 409.14966127 202.15408547 405.14459766 202.17919922 400.56152344 C202.18416412 399.87153259 202.18912903 399.18154175 202.19424438 398.47064209 C202.20881998 396.19330843 202.21566102 393.91604447 202.22119141 391.63867188 C202.22694754 390.04929606 202.23270522 388.45992024 202.23846436 386.87054443 C202.24896188 383.53836749 202.25481241 380.20621458 202.25830078 376.87402344 C202.26377667 372.61945898 202.28779042 368.36521597 202.31627274 364.11075211 C202.33496628 360.8266306 202.34010832 357.54258542 202.34163666 354.25841522 C202.34464961 352.69083656 202.35263195 351.1232588 202.36582184 349.55573273 C202.59911516 336.88697145 202.59911516 336.88697145 197.62353516 325.47460938 C197.15560547 325.02859375 196.68767578 324.58257812 196.20556641 324.12304688 C195.74537109 323.6615625 195.28517578 323.20007813 194.81103516 322.72460938 C189.64498475 319.19053567 184.09921856 319.2052103 178.09448242 319.22338867 C177.21727539 319.21827774 176.34006836 319.21316681 175.4362793 319.207901 C172.54810691 319.19404643 169.66017424 319.19495858 166.77197266 319.19726562 C164.7570741 319.19337659 162.74217635 319.18904149 160.72727966 319.1842804 C156.50834493 319.1768272 152.28949389 319.17710307 148.07055664 319.18237305 C142.67253552 319.18816819 137.27485746 319.17123111 131.87689304 319.14802837 C127.71695463 319.13327493 123.55709854 319.13242151 119.3971386 319.1355381 C117.40729022 319.13502576 115.41743713 319.1298044 113.42761421 319.11972618 C110.6418662 319.10734715 107.85678282 319.11416215 105.07104492 319.12573242 C104.25472092 319.11808868 103.43839691 319.11044495 102.59733582 319.10256958 C94.80425522 319.17387179 89.11537006 321.26800908 84.01806641 327.49804688 Z " fill="#ffffff" transform="translate(257.98193359375,27.501953125)"/>
<path d="M0 0 C6.0305625 4.0838546 10.22513463 8.80712453 12 16 C12 18.31 12 20.62 12 23 C6.39 23 0.78 23 -5 23 C-5.99 20.69 -6.98 18.38 -8 16 C-12.77043175 11.52772023 -17.80572574 11.72815902 -24.0390625 11.7734375 C-27.62413185 12.04775679 -30.05806226 12.9326924 -33 15 C-34.14352916 17.28705831 -34.10334439 18.59264762 -34.0625 21.125 C-34.041875 22.40375 -34.02125 23.6825 -34 25 C-26.04761103 27.79453085 -18.0029052 29.76952901 -9.79492188 31.66210938 C-1.34046614 33.69396652 6.30591786 36.00441337 12 43 C15.70362455 49.38555957 16.09114497 56.07715992 14.49609375 63.2734375 C11.92002511 70.95748223 7.42369944 75.13252758 0.4765625 78.921875 C-5.82240985 81.66401438 -11.54288249 82.35974559 -18.3125 82.3125 C-19.57489502 82.30404053 -19.57489502 82.30404053 -20.86279297 82.29541016 C-30.94283316 82.09845058 -39.29111132 79.81179907 -47 73 C-52.05598018 66.62874097 -53 62.38600085 -53 54 C-47.39 54 -41.78 54 -36 54 C-35.15364583 56.24609375 -34.30729167 58.4921875 -33.4609375 60.73828125 C-31.42146937 63.89563967 -29.50490933 64.70112184 -26 66 C-22.31985467 66.47157725 -22.31985467 66.47157725 -18.5 66.375 C-17.2315625 66.38273437 -15.963125 66.39046875 -14.65625 66.3984375 C-10.73282667 65.97088496 -8.30629992 65.13357357 -5 63 C-3.65551095 59.78491748 -2.85789051 57.3683743 -3.22045898 53.87719727 C-3.82992353 51.86625016 -3.82992353 51.86625016 -5.69946289 51.03881836 C-6.7937561 50.72376343 -6.7937561 50.72376343 -7.91015625 50.40234375 C-8.72500488 50.16370605 -9.53985352 49.92506836 -10.37939453 49.67919922 C-15.59301382 48.32795189 -20.83402356 47.13063556 -26.09570312 45.98242188 C-35.65718046 43.80519528 -44.51997378 41.6990626 -50 33 C-52.91501343 27.16997313 -52.88372744 20.02510233 -51.5 13.72265625 C-49.13030645 6.70782478 -45.45884817 2.54407626 -38.9375 -0.8125 C-27.88319823 -6.07564214 -10.49058363 -6.79275338 0 0 Z " fill="#ffffff" transform="translate(287,163)"/>
<path d="M0 0 C6.57637651 4.22366941 10.20527987 9.36063208 12 17 C12 18.98 12 20.96 12 23 C6.39 23 0.78 23 -5 23 C-5.53625 21.741875 -6.0725 20.48375 -6.625 19.1875 C-8.05828106 16.40466907 -8.97534242 15.02023186 -11.4375 13 C-17.73288875 11.23287333 -25.82053427 10.2823573 -31.8125 13.5 C-34.19743198 16.22563654 -34.33228269 16.80820563 -34.375 20.25 C-34.25125 21.4875 -34.1275 22.725 -34 24 C-26.19544098 27.88809389 -18.26109551 29.79565645 -9.79492188 31.7109375 C-0.29437996 33.95202919 7.53630715 36.48095259 13 45 C15.81547713 52.03869283 16.05014814 59.02158378 13.09375 65.98828125 C8.95047708 73.60894394 3.04674944 77.98570319 -5 81 C-16.19660623 84.03604003 -30.22878988 83.13628926 -40.421875 77.7109375 C-45.36238537 74.69173672 -49.65458002 71.41023348 -52 66 C-52.95612604 61.98930286 -53.49256403 58.10561827 -54 54 C-48.06 54 -42.12 54 -36 54 C-35.01 56.64 -34.02 59.28 -33 62 C-28.74329855 66.12367953 -24.41511253 66.18201647 -18.6875 66.25 C-17.39199219 66.27578125 -16.09648437 66.3015625 -14.76171875 66.328125 C-10.7708937 65.98001565 -8.38039939 65.10699629 -5 63 C-3.41631898 59.83263796 -3.57943294 57.4846985 -4 54 C-9.11641738 49.4501365 -15.20748708 48.4628223 -21.75 47 C-43.02232083 42.17261547 -43.02232083 42.17261547 -48.84375 34.87890625 C-52.73210386 28.56033122 -52.81532555 22.23706491 -52 15 C-49.63746968 7.4865452 -45.76142395 2.96244653 -39.09765625 -1.18359375 C-28.1297686 -6.75427834 -10.57046293 -6.15241107 0 0 Z " fill="#ffffff" transform="translate(212,163)"/>
<path d="M0 0 C5.94 0 11.88 0 18 0 C18 22.11 18 44.22 18 67 C31.2 67 44.4 67 58 67 C58 71.95 58 76.9 58 82 C38.86 82 19.72 82 0 82 C0 54.94 0 27.88 0 0 Z " fill="#ffffff" transform="translate(313,161)"/>
<path d="M0 0 C4.34731225 2.2146685 7.48432837 4.80721395 10 9 C11.66442543 15.05349251 11.147702 19.46438613 8 25 C7.31156006 25.61302979 6.62312012 26.22605957 5.91381836 26.85766602 C3.49633941 29.56379917 3.5255278 30.88419463 3.56640625 34.46484375 C3.55673828 35.51220703 3.54707031 36.55957031 3.53710938 37.63867188 C3.55400665 39.8340182 3.57482616 42.02933791 3.59960938 44.22460938 C3.51530014 52.29349864 3.51530014 52.29349864 0.65234375 56.21875 C-2.62195883 58.41769253 -4.13074891 58.72548458 -8 58 C-10.65625 56.73828125 -10.65625 56.73828125 -13 54 C-13.83909369 48.78188611 -13.5277668 43.48751128 -13.44921875 38.21875 C-13.31447839 31.26368447 -13.31447839 31.26368447 -16.46875 25.3359375 C-17.3040625 24.56507813 -18.139375 23.79421875 -19 23 C-20.97325184 19.05349633 -20.44349901 14.30133287 -20 10 C-15.71315178 1.42630356 -9.20716544 -1.13512999 0 0 Z " fill="#ffffff" transform="translate(405,373)"/>
</svg>
